REM DIRINDEX 1\2\6,1\2\7,1\2\8,1\2\9,1\3\10,1\3\11,1\4\12,1\4\13,1\4\14,1\5\15,1\5\16,1\5\17
REM DIRNAME cjc029,folder01,folder02,folder03,folder04,folder05,folder06,folder07,folder08,folder09,folder10,folder11,folder12,folder13,folder14,folder15,folder16
TITLE ""
FILE "1400_3_sec09_0801_0816.mp3" MP3
  TRACK 01 AUDIO
    TITLE "0:"
    INDEX 01 00:00:00
  TRACK 02 AUDIO
    TITLE "15:cjc029_6036"
    INDEX 01 00:00:15
  TRACK 03 AUDIO
    TITLE "0:"
    INDEX 01 00:01:56
  TRACK 04 AUDIO
    TITLE "17:cjc029_6037"
    INDEX 01 00:02:49
  TRACK 05 AUDIO
    TITLE "0:"
    INDEX 01 00:04:05
  TRACK 06 AUDIO
    TITLE "16:cjc029_6038"
    INDEX 01 00:04:09
  TRACK 07 AUDIO
    TITLE "0:"
    INDEX 01 00:05:28
  TRACK 08 AUDIO
    TITLE "17:cjc029_6039"
    INDEX 01 00:06:12
  TRACK 09 AUDIO
    TITLE "0:"
    INDEX 01 00:07:41
  TRACK 10 AUDIO
    TITLE "16:cjc029_6040"
    INDEX 01 00:07:49
  TRACK 11 AUDIO
    TITLE "0:"
    INDEX 01 00:08:66
  TRACK 12 AUDIO
    TITLE "17:cjc029_6041"
    INDEX 01 00:09:49
  TRACK 13 AUDIO
    TITLE "0:"
    INDEX 01 00:11:25
  TRACK 14 AUDIO
    TITLE "16:cjc029_6042"
    INDEX 01 00:11:29
  TRACK 15 AUDIO
    TITLE "0:"
    INDEX 01 00:12:22
  TRACK 16 AUDIO
    TITLE "17:cjc029_6043"
    INDEX 01 00:13:06
  TRACK 17 AUDIO
    TITLE "0:"
    INDEX 01 00:14:17
  TRACK 18 AUDIO
    TITLE "16:cjc029_6044"
    INDEX 01 00:14:23
  TRACK 19 AUDIO
    TITLE "0:"
    INDEX 01 00:15:36
  TRACK 20 AUDIO
    TITLE "17:cjc029_6045"
    INDEX 01 00:16:20
  TRACK 21 AUDIO
    TITLE "0:"
    INDEX 01 00:17:55
  TRACK 22 AUDIO
    TITLE "16:cjc029_6046"
    INDEX 01 00:17:59
  TRACK 23 AUDIO
    TITLE "0:"
    INDEX 01 00:18:70
  TRACK 24 AUDIO
    TITLE "17:cjc029_6047"
    INDEX 01 00:19:54
  TRACK 25 AUDIO
    TITLE "0:"
    INDEX 01 00:20:51
  TRACK 26 AUDIO
    TITLE "16:cjc029_6048"
    INDEX 01 00:20:57
  TRACK 27 AUDIO
    TITLE "0:"
    INDEX 01 00:21:72
  TRACK 28 AUDIO
    TITLE "17:cjc029_6049"
    INDEX 01 00:22:54
  TRACK 29 AUDIO
    TITLE "0:"
    INDEX 01 00:24:08
  TRACK 30 AUDIO
    TITLE "16:cjc029_6050"
    INDEX 01 00:24:14
  TRACK 31 AUDIO
    TITLE "0:"
    INDEX 01 00:25:31
  TRACK 32 AUDIO
    TITLE "17:cjc029_6051"
    INDEX 01 00:26:15
  TRACK 33 AUDIO
    TITLE "0:"
    INDEX 01 00:27:47
  TRACK 34 AUDIO
    TITLE "16:cjc029_6052"
    INDEX 01 00:27:51
  TRACK 35 AUDIO
    TITLE "0:"
    INDEX 01 00:28:51
  TRACK 36 AUDIO
    TITLE "17:cjc029_6053"
    INDEX 01 00:29:36
  TRACK 37 AUDIO
    TITLE "0:"
    INDEX 01 00:30:48
  TRACK 38 AUDIO
    TITLE "16:cjc029_6054"
    INDEX 01 00:30:55
  TRACK 39 AUDIO
    TITLE "0:"
    INDEX 01 00:31:63
  TRACK 40 AUDIO
    TITLE "17:cjc029_6055"
    INDEX 01 00:32:50
  TRACK 41 AUDIO
    TITLE "0:"
    INDEX 01 00:33:73
  TRACK 42 AUDIO
    TITLE "16:cjc029_6056"
    INDEX 01 00:34:02
  TRACK 43 AUDIO
    TITLE "0:"
    INDEX 01 00:35:17
  TRACK 44 AUDIO
    TITLE "17:cjc029_6057"
    INDEX 01 00:36:01
  TRACK 45 AUDIO
    TITLE "0:"
    INDEX 01 00:37:18
  TRACK 46 AUDIO
    TITLE "16:cjc029_6058"
    INDEX 01 00:37:22
  TRACK 47 AUDIO
    TITLE "0:"
    INDEX 01 00:38:35
  TRACK 48 AUDIO
    TITLE "17:cjc029_6059"
    INDEX 01 00:39:17
  TRACK 49 AUDIO
    TITLE "0:"
    INDEX 01 00:40:32
  TRACK 50 AUDIO
    TITLE "16:cjc029_6060"
    INDEX 01 00:40:36
  TRACK 51 AUDIO
    TITLE "0:"
    INDEX 01 00:41:53
  TRACK 52 AUDIO
    TITLE "17:cjc029_6061"
    INDEX 01 00:42:35
  TRACK 53 AUDIO
    TITLE "0:"
    INDEX 01 00:43:40
  TRACK 54 AUDIO
    TITLE "16:cjc029_6062"
    INDEX 01 00:43:46
  TRACK 55 AUDIO
    TITLE "0:"
    INDEX 01 00:44:63
  TRACK 56 AUDIO
    TITLE "17:cjc029_6063"
    INDEX 01 00:45:47
  TRACK 57 AUDIO
    TITLE "0:"
    INDEX 01 00:47:40
  TRACK 58 AUDIO
    TITLE "16:cjc029_6064"
    INDEX 01 00:47:46
  TRACK 59 AUDIO
    TITLE "0:"
    INDEX 01 00:48:51
  TRACK 60 AUDIO
    TITLE "17:cjc029_6065"
    INDEX 01 00:49:35
  TRACK 61 AUDIO
    TITLE "0:"
    INDEX 01 00:52:04
  TRACK 62 AUDIO
    TITLE "16:cjc029_6066"
    INDEX 01 00:52:08
  TRACK 63 AUDIO
    TITLE "0:"
    INDEX 01 00:53:27
  TRACK 64 AUDIO
    TITLE "17:cjc029_6067"
    INDEX 01 00:54:11
  TRACK 65 AUDIO
    TITLE "0:"
    INDEX 01 00:55:44
  TRACK 66 AUDIO
    TITLE "16:cjc029_6068"
    INDEX 01 00:55:50
  TRACK 67 AUDIO
    TITLE "0:"
    INDEX 01 00:56:57
